<svg width="404" height="457" viewBox="0 0 404 457" fill="none" xmlns="http://www.w3.org/2000/svg">
<rect width="404" height="457" fill="white"/>
<rect width="202" height="457" fill="#E6E6E6"/>
<g filter="url(#filter0_d_102_20)">
<circle cx="189" cy="157" r="86" fill="white"/>
</g>
<path d="M141.813 268H130.845C130.189 268 129.663 268.532 129.663 269.183V300.731L109.152 268.547C109.045 268.379 108.898 268.24 108.723 268.145C108.549 268.049 108.353 267.999 108.155 268H97.1824C96.5311 268 96 268.532 96 269.183V319.817C96 320.468 96.5311 321 97.1824 321H108.155C108.806 321 109.342 320.468 109.342 319.817V288.264L129.848 320.448C130.064 320.789 130.445 320.995 130.85 320.995H141.818C142.469 320.995 143 320.463 143 319.812V269.183C142.997 268.87 142.871 268.569 142.649 268.348C142.427 268.126 142.126 268.001 141.813 268Z" fill="#40C0E7"/>
<path d="M164.591 321.511C162.034 321.511 159.818 320.949 157.943 319.824C156.068 318.699 154.614 317.125 153.58 315.102C152.557 313.08 152.045 310.716 152.045 308.011C152.045 305.307 152.557 302.937 153.58 300.903C154.614 298.869 156.068 297.29 157.943 296.165C159.818 295.04 162.034 294.477 164.591 294.477C167.148 294.477 169.364 295.04 171.239 296.165C173.114 297.29 174.563 298.869 175.585 300.903C176.619 302.937 177.136 305.307 177.136 308.011C177.136 310.716 176.619 313.08 175.585 315.102C174.563 317.125 173.114 318.699 171.239 319.824C169.364 320.949 167.148 321.511 164.591 321.511ZM164.625 316.568C166.011 316.568 167.17 316.187 168.102 315.426C169.034 314.653 169.727 313.619 170.182 312.324C170.648 311.028 170.881 309.585 170.881 307.994C170.881 306.392 170.648 304.943 170.182 303.648C169.727 302.341 169.034 301.301 168.102 300.528C167.17 299.756 166.011 299.369 164.625 299.369C163.205 299.369 162.023 299.756 161.08 300.528C160.148 301.301 159.449 302.341 158.983 303.648C158.528 304.943 158.301 306.392 158.301 307.994C158.301 309.585 158.528 311.028 158.983 312.324C159.449 313.619 160.148 314.653 161.08 315.426C162.023 316.187 163.205 316.568 164.625 316.568ZM199.061 309.989V294.818H205.232V321H199.249V316.347H198.976C198.385 317.812 197.413 319.011 196.061 319.943C194.72 320.875 193.067 321.341 191.101 321.341C189.385 321.341 187.868 320.96 186.55 320.199C185.243 319.426 184.22 318.307 183.482 316.841C182.743 315.364 182.374 313.58 182.374 311.489V294.818H188.544V310.534C188.544 312.193 188.999 313.511 189.908 314.489C190.817 315.466 192.01 315.955 193.487 315.955C194.396 315.955 195.277 315.733 196.129 315.29C196.982 314.847 197.68 314.188 198.226 313.312C198.783 312.426 199.061 311.318 199.061 309.989ZM217.747 305.659V321H211.577V294.818H217.474V299.267H217.781C218.384 297.801 219.344 296.636 220.662 295.773C221.991 294.909 223.634 294.477 225.588 294.477C227.395 294.477 228.969 294.864 230.31 295.636C231.662 296.409 232.707 297.528 233.446 298.994C234.196 300.46 234.565 302.239 234.554 304.33V321H228.384V305.284C228.384 303.534 227.929 302.165 227.02 301.176C226.122 300.187 224.878 299.693 223.287 299.693C222.207 299.693 221.247 299.932 220.406 300.409C219.577 300.875 218.923 301.551 218.446 302.438C217.98 303.324 217.747 304.398 217.747 305.659ZM252.247 321.511C249.634 321.511 247.389 320.938 245.514 319.79C243.651 318.642 242.213 317.057 241.202 315.034C240.202 313 239.702 310.659 239.702 308.011C239.702 305.352 240.213 303.006 241.236 300.972C242.259 298.926 243.702 297.335 245.565 296.199C247.44 295.051 249.656 294.477 252.213 294.477C254.338 294.477 256.219 294.869 257.855 295.653C259.503 296.426 260.815 297.523 261.793 298.943C262.77 300.352 263.327 302 263.463 303.886H257.565C257.327 302.625 256.759 301.574 255.861 300.733C254.974 299.881 253.787 299.455 252.298 299.455C251.037 299.455 249.929 299.795 248.974 300.477C248.02 301.148 247.276 302.114 246.741 303.375C246.219 304.636 245.957 306.148 245.957 307.909C245.957 309.693 246.219 311.227 246.741 312.511C247.264 313.784 247.997 314.767 248.94 315.46C249.895 316.142 251.014 316.483 252.298 316.483C253.207 316.483 254.02 316.312 254.736 315.972C255.463 315.619 256.071 315.114 256.56 314.455C257.048 313.795 257.384 312.994 257.565 312.051H263.463C263.315 313.903 262.77 315.545 261.827 316.977C260.884 318.398 259.599 319.511 257.974 320.318C256.349 321.114 254.44 321.511 252.247 321.511ZM280.121 321.511C277.496 321.511 275.229 320.966 273.32 319.875C271.422 318.773 269.962 317.216 268.939 315.205C267.916 313.182 267.405 310.801 267.405 308.062C267.405 305.369 267.916 303.006 268.939 300.972C269.973 298.926 271.416 297.335 273.268 296.199C275.121 295.051 277.297 294.477 279.797 294.477C281.411 294.477 282.933 294.739 284.365 295.261C285.808 295.773 287.081 296.568 288.183 297.648C289.297 298.727 290.172 300.102 290.808 301.773C291.445 303.432 291.763 305.409 291.763 307.705V309.597H270.303V305.438H285.848C285.837 304.256 285.581 303.205 285.081 302.284C284.581 301.352 283.882 300.619 282.984 300.085C282.098 299.551 281.064 299.284 279.882 299.284C278.621 299.284 277.513 299.591 276.558 300.205C275.604 300.807 274.859 301.602 274.325 302.591C273.803 303.568 273.536 304.642 273.524 305.812V309.443C273.524 310.966 273.803 312.273 274.359 313.364C274.916 314.443 275.695 315.273 276.695 315.852C277.695 316.42 278.865 316.705 280.206 316.705C281.104 316.705 281.916 316.58 282.643 316.33C283.371 316.068 284.001 315.688 284.536 315.188C285.07 314.688 285.473 314.068 285.746 313.33L291.507 313.977C291.143 315.5 290.45 316.83 289.428 317.966C288.416 319.091 287.121 319.966 285.541 320.591C283.962 321.205 282.155 321.511 280.121 321.511ZM296.983 321V294.818H302.966V299.182H303.239C303.716 297.67 304.534 296.506 305.693 295.688C306.864 294.858 308.199 294.443 309.699 294.443C310.04 294.443 310.42 294.46 310.841 294.494C311.273 294.517 311.631 294.557 311.915 294.614V300.29C311.653 300.199 311.239 300.119 310.67 300.051C310.114 299.972 309.574 299.932 309.051 299.932C307.926 299.932 306.915 300.176 306.017 300.665C305.131 301.142 304.432 301.807 303.92 302.659C303.409 303.511 303.153 304.494 303.153 305.608V321H296.983Z" fill="black"/>
<path d="M221.778 111H161.833C156.272 111 148 114.675 148 124.8V189.2C148 199.325 156.272 203 161.833 203H231V193.8H161.889C159.758 193.745 157.222 192.908 157.222 189.2C157.222 188.735 157.264 188.321 157.333 187.944C157.849 185.295 160.026 184.646 161.889 184.6H231V120.2C231 117.76 230.028 115.42 228.299 113.695C226.569 111.969 224.224 111 221.778 111ZM221.778 152.4L212.556 147.8L203.333 152.4V120.2H221.778V152.4Z" fill="#40C0E7"/>
<defs>
<filter id="filter0_d_102_20" x="99" y="71" width="180" height="180" filterUnits="userSpaceOnUse" color-interpolation-filters="sRGB">
<feFlood flood-opacity="0" result="BackgroundImageFix"/>
<feColorMatrix in="SourceAlpha" type="matrix" values="0 0 0 0 0 0 0 0 0 0 0 0 0 0 0 0 0 0 127 0" result="hardAlpha"/>
<feOffset dy="4"/>
<feGaussianBlur stdDeviation="2"/>
<feComposite in2="hardAlpha" operator="out"/>
<feColorMatrix type="matrix" values="0 0 0 0 0 0 0 0 0 0 0 0 0 0 0 0 0 0 0.25 0"/>
<feBlend mode="normal" in2="BackgroundImageFix" result="effect1_dropShadow_102_20"/>
<feBlend mode="normal" in="SourceGraphic" in2="effect1_dropShadow_102_20" result="shape"/>
</filter>
</defs>
</svg>
