<svg width="374" height="271" viewBox="0 0 374 271" fill="none" xmlns="http://www.w3.org/2000/svg">
<rect width="105" height="271" fill="#07B6C1"/>
<rect x="106" width="268" height="271" fill="white"/>
<path d="M77.71 68.14C79.75 68.14 81.39 68.77 82.63 70.03C83.89 71.27 84.52 73.01 84.52 75.25V85H80.32V75.82C80.32 74.52 79.99 73.53 79.33 72.85C78.67 72.15 77.77 71.8 76.63 71.8C75.49 71.8 74.58 72.15 73.9 72.85C73.24 73.53 72.91 74.52 72.91 75.82V85H68.71V75.82C68.71 74.52 68.38 73.53 67.72 72.85C67.06 72.15 66.16 71.8 65.02 71.8C63.86 71.8 62.94 72.15 62.26 72.85C61.6 73.53 61.27 74.52 61.27 75.82V85H57.07V68.38H61.27V70.39C61.81 69.69 62.5 69.14 63.34 68.74C64.2 68.34 65.14 68.14 66.16 68.14C67.46 68.14 68.62 68.42 69.64 68.98C70.66 69.52 71.45 70.3 72.01 71.32C72.55 70.36 73.33 69.59 74.35 69.01C75.39 68.43 76.51 68.14 77.71 68.14ZM104.406 68.38L94.1155 92.86H89.6455L93.2455 84.58L86.5855 68.38H91.2955L95.5855 79.99L99.9355 68.38H104.406Z" fill="white"/>
<path d="M110.87 70.78C111.41 70.02 112.15 69.39 113.09 68.89C114.05 68.37 115.14 68.11 116.36 68.11C117.78 68.11 119.06 68.46 120.2 69.16C121.36 69.86 122.27 70.86 122.93 72.16C123.61 73.44 123.95 74.93 123.95 76.63C123.95 78.33 123.61 79.84 122.93 81.16C122.27 82.46 121.36 83.47 120.2 84.19C119.06 84.91 117.78 85.27 116.36 85.27C115.14 85.27 114.06 85.02 113.12 84.52C112.2 84.02 111.45 83.39 110.87 82.63V92.92H106.67V68.38H110.87V70.78ZM119.66 76.63C119.66 75.63 119.45 74.77 119.03 74.05C118.63 73.31 118.09 72.75 117.41 72.37C116.75 71.99 116.03 71.8 115.25 71.8C114.49 71.8 113.77 72 113.09 72.4C112.43 72.78 111.89 73.34 111.47 74.08C111.07 74.82 110.87 75.69 110.87 76.69C110.87 77.69 111.07 78.56 111.47 79.3C111.89 80.04 112.43 80.61 113.09 81.01C113.77 81.39 114.49 81.58 115.25 81.58C116.03 81.58 116.75 81.38 117.41 80.98C118.09 80.58 118.63 80.01 119.03 79.27C119.45 78.53 119.66 77.65 119.66 76.63ZM134.382 85.27C132.782 85.27 131.342 84.92 130.062 84.22C128.782 83.5 127.772 82.49 127.032 81.19C126.312 79.89 125.952 78.39 125.952 76.69C125.952 74.99 126.322 73.49 127.062 72.19C127.822 70.89 128.852 69.89 130.152 69.19C131.452 68.47 132.902 68.11 134.502 68.11C136.102 68.11 137.552 68.47 138.852 69.19C140.152 69.89 141.172 70.89 141.912 72.19C142.672 73.49 143.052 74.99 143.052 76.69C143.052 78.39 142.662 79.89 141.882 81.19C141.122 82.49 140.082 83.5 138.762 84.22C137.462 84.92 136.002 85.27 134.382 85.27ZM134.382 81.61C135.142 81.61 135.852 81.43 136.512 81.07C137.192 80.69 137.732 80.13 138.132 79.39C138.532 78.65 138.732 77.75 138.732 76.69C138.732 75.11 138.312 73.9 137.472 73.06C136.652 72.2 135.642 71.77 134.442 71.77C133.242 71.77 132.232 72.2 131.412 73.06C130.612 73.9 130.212 75.11 130.212 76.69C130.212 78.27 130.602 79.49 131.382 80.35C132.182 81.19 133.182 81.61 134.382 81.61ZM150.333 70.96C150.873 70.08 151.573 69.39 152.433 68.89C153.313 68.39 154.313 68.14 155.433 68.14V72.55H154.323C153.003 72.55 152.003 72.86 151.323 73.48C150.663 74.1 150.333 75.18 150.333 76.72V85H146.133V68.38H150.333V70.96ZM163.151 71.83V79.87C163.151 80.43 163.281 80.84 163.541 81.1C163.821 81.34 164.281 81.46 164.921 81.46H166.871V85H164.231C160.691 85 158.921 83.28 158.921 79.84V71.83H156.941V68.38H158.921V64.27H163.151V68.38H166.871V71.83H163.151ZM177.272 85.27C175.672 85.27 174.232 84.92 172.952 84.22C171.672 83.5 170.662 82.49 169.922 81.19C169.202 79.89 168.842 78.39 168.842 76.69C168.842 74.99 169.212 73.49 169.952 72.19C170.712 70.89 171.742 69.89 173.042 69.19C174.342 68.47 175.792 68.11 177.392 68.11C178.992 68.11 180.442 68.47 181.742 69.19C183.042 69.89 184.062 70.89 184.802 72.19C185.562 73.49 185.942 74.99 185.942 76.69C185.942 78.39 185.552 79.89 184.772 81.19C184.012 82.49 182.972 83.5 181.652 84.22C180.352 84.92 178.892 85.27 177.272 85.27ZM177.272 81.61C178.032 81.61 178.742 81.43 179.402 81.07C180.082 80.69 180.622 80.13 181.022 79.39C181.422 78.65 181.622 77.75 181.622 76.69C181.622 75.11 181.202 73.9 180.362 73.06C179.542 72.2 178.532 71.77 177.332 71.77C176.132 71.77 175.122 72.2 174.302 73.06C173.502 73.9 173.102 75.11 173.102 76.69C173.102 78.27 173.492 79.49 174.272 80.35C175.072 81.19 176.072 81.61 177.272 81.61ZM196.643 71.83H193.733V85H189.473V71.83H187.583V68.38H189.473V67.54C189.473 65.5 190.053 64 191.213 63.04C192.373 62.08 194.123 61.63 196.463 61.69V65.23C195.443 65.21 194.733 65.38 194.333 65.74C193.933 66.1 193.733 66.75 193.733 67.69V68.38H196.643V71.83ZM206.745 85.27C205.145 85.27 203.705 84.92 202.425 84.22C201.145 83.5 200.135 82.49 199.395 81.19C198.675 79.89 198.315 78.39 198.315 76.69C198.315 74.99 198.685 73.49 199.425 72.19C200.185 70.89 201.215 69.89 202.515 69.19C203.815 68.47 205.265 68.11 206.865 68.11C208.465 68.11 209.915 68.47 211.215 69.19C212.515 69.89 213.535 70.89 214.275 72.19C215.035 73.49 215.415 74.99 215.415 76.69C215.415 78.39 215.025 79.89 214.245 81.19C213.485 82.49 212.445 83.5 211.125 84.22C209.825 84.92 208.365 85.27 206.745 85.27ZM206.745 81.61C207.505 81.61 208.215 81.43 208.875 81.07C209.555 80.69 210.095 80.13 210.495 79.39C210.895 78.65 211.095 77.75 211.095 76.69C211.095 75.11 210.675 73.9 209.835 73.06C209.015 72.2 208.005 71.77 206.805 71.77C205.605 71.77 204.595 72.2 203.775 73.06C202.975 73.9 202.575 75.11 202.575 76.69C202.575 78.27 202.965 79.49 203.745 80.35C204.545 81.19 205.545 81.61 206.745 81.61ZM222.696 62.8V85H218.496V62.8H222.696ZM228.975 66.4C228.235 66.4 227.615 66.17 227.115 65.71C226.635 65.23 226.395 64.64 226.395 63.94C226.395 63.24 226.635 62.66 227.115 62.2C227.615 61.72 228.235 61.48 228.975 61.48C229.715 61.48 230.325 61.72 230.805 62.2C231.305 62.66 231.555 63.24 231.555 63.94C231.555 64.64 231.305 65.23 230.805 65.71C230.325 66.17 229.715 66.4 228.975 66.4ZM231.045 68.38V85H226.845V68.38H231.045ZM242.575 85.27C240.975 85.27 239.535 84.92 238.255 84.22C236.975 83.5 235.965 82.49 235.225 81.19C234.505 79.89 234.145 78.39 234.145 76.69C234.145 74.99 234.515 73.49 235.255 72.19C236.015 70.89 237.045 69.89 238.345 69.19C239.645 68.47 241.095 68.11 242.695 68.11C244.295 68.11 245.745 68.47 247.045 69.19C248.345 69.89 249.365 70.89 250.105 72.19C250.865 73.49 251.245 74.99 251.245 76.69C251.245 78.39 250.855 79.89 250.075 81.19C249.315 82.49 248.275 83.5 246.955 84.22C245.655 84.92 244.195 85.27 242.575 85.27ZM242.575 81.61C243.335 81.61 244.045 81.43 244.705 81.07C245.385 80.69 245.925 80.13 246.325 79.39C246.725 78.65 246.925 77.75 246.925 76.69C246.925 75.11 246.505 73.9 245.665 73.06C244.845 72.2 243.835 71.77 242.635 71.77C241.435 71.77 240.425 72.2 239.605 73.06C238.805 73.9 238.405 75.11 238.405 76.69C238.405 78.27 238.795 79.49 239.575 80.35C240.375 81.19 241.375 81.61 242.575 81.61Z" fill="#07B6C1"/>
</svg>
