<svg width="44" height="45" viewBox="0 0 44 45" fill="none" xmlns="http://www.w3.org/2000/svg">
<rect width="44" height="44" rx="10" fill="white"/>
<path d="M6.99 24.63C6.99 22.95 7.32 21.46 7.98 20.16C8.66 18.86 9.58 17.86 10.74 17.16C11.9 16.46 13.19 16.11 14.61 16.11C15.69 16.11 16.72 16.35 17.7 16.83C18.68 17.29 19.46 17.91 20.04 18.69V10.8H24.3V33H20.04V30.54C19.52 31.36 18.79 32.02 17.85 32.52C16.91 33.02 15.82 33.27 14.58 33.27C13.18 33.27 11.9 32.91 10.74 32.19C9.58 31.47 8.66 30.46 7.98 29.16C7.32 27.84 6.99 26.33 6.99 24.63ZM20.07 24.69C20.07 23.67 19.87 22.8 19.47 22.08C19.07 21.34 18.53 20.78 17.85 20.4C17.17 20 16.44 19.8 15.66 19.8C14.88 19.8 14.16 19.99 13.5 20.37C12.84 20.75 12.3 21.31 11.88 22.05C11.48 22.77 11.28 23.63 11.28 24.63C11.28 25.63 11.48 26.51 11.88 27.27C12.3 28.01 12.84 28.58 13.5 28.98C14.18 29.38 14.9 29.58 15.66 29.58C16.44 29.58 17.17 29.39 17.85 29.01C18.53 28.61 19.07 28.05 19.47 27.33C19.87 26.59 20.07 25.71 20.07 24.69ZM36.022 19.83H33.112V33H28.852V19.83H26.962V16.38H28.852V15.54C28.852 13.5 29.432 12 30.592 11.04C31.752 10.08 33.502 9.63 35.842 9.69V13.23C34.822 13.21 34.112 13.38 33.712 13.74C33.312 14.1 33.112 14.75 33.112 15.69V16.38H36.022V19.83Z" fill="#07B6C1"/>
</svg>
