<svg width="42" height="42" viewBox="0 0 42 42" fill="none" xmlns="http://www.w3.org/2000/svg">
<path d="M22.4062 21L17.4583 25.9479C17.0764 26.3299 16.8854 26.8073 16.8854 27.3802C16.8854 27.9531 17.0764 28.4479 17.4583 28.8646C17.875 29.2813 18.3698 29.4896 18.9427 29.4896C19.5156 29.4896 20.0104 29.2813 20.4271 28.8646L26.8333 22.4584C27.25 22.0417 27.4583 21.5556 27.4583 21C27.4583 20.4445 27.25 19.9584 26.8333 19.5417L20.375 13.0834C19.9583 12.6667 19.4722 12.467 18.9167 12.4844C18.3611 12.5018 17.875 12.7188 17.4583 13.1354C17.0764 13.5521 16.8767 14.0382 16.8594 14.5938C16.842 15.1493 17.0417 15.6354 17.4583 16.0521L22.4062 21ZM21 41.8334C18.118 41.8334 15.4097 41.2865 12.875 40.1927C10.3403 39.099 8.13541 37.6146 6.26041 35.7396C4.38541 33.8646 2.90103 31.6597 1.80728 29.125C0.713531 26.5903 0.166656 23.882 0.166656 21C0.166656 18.1181 0.713531 15.4097 1.80728 12.875C2.90103 10.3403 4.38541 8.13544 6.26041 6.26044C8.13541 4.38544 10.3403 2.90106 12.875 1.80731C15.4097 0.713562 18.118 0.166687 21 0.166687C23.8819 0.166687 26.5903 0.713562 29.125 1.80731C31.6597 2.90106 33.8646 4.38544 35.7396 6.26044C37.6146 8.13544 39.0989 10.3403 40.1927 12.875C41.2864 15.4097 41.8333 18.1181 41.8333 21C41.8333 23.882 41.2864 26.5903 40.1927 29.125C39.0989 31.6597 37.6146 33.8646 35.7396 35.7396C33.8646 37.6146 31.6597 39.099 29.125 40.1927C26.5903 41.2865 23.8819 41.8334 21 41.8334Z" fill="white"/>
</svg>
