<svg width="60" height="41" viewBox="0 0 60 41" fill="none" xmlns="http://www.w3.org/2000/svg">
<path d="M32.8031 18.1531H26.6062V12.5844H32.8031V18.1531ZM32.8031 -1H26.6062V4.69062H32.8031V-1ZM40.1344 12.575H33.9375V18.1437H40.1344V12.575ZM25.4812 5.81562H19.2844V11.45H25.4812V5.81562ZM32.8031 5.81562H26.6062V11.45H32.8031V5.81562ZM58.7531 15.1906C57.4031 14.2812 54.2906 13.9531 51.9 14.4031C51.5906 12.1531 50.3344 10.1938 48.0469 8.43125L46.7344 7.55938L45.8625 8.87188C44.1375 11.4781 43.6687 15.7719 45.5156 18.6031C44.7 19.0438 43.0969 19.6438 40.9781 19.6063H0.224997C-0.590628 24.3687 0.768747 30.5562 4.35 34.8031C7.82812 38.9188 13.0406 41.0094 19.8562 41.0094C34.6125 41.0094 45.5344 34.2125 50.6437 21.8656C52.65 21.9031 56.9812 21.875 59.2031 17.6281C59.3437 17.3937 59.8219 16.3906 60 16.025L58.7531 15.1906ZM10.8375 12.575H4.65V18.1437H10.8469V12.575H10.8375ZM18.1594 12.575H11.9625V18.1437H18.1594V12.575ZM25.4812 12.575H19.2844V18.1437H25.4812V12.575ZM18.1594 5.81562H11.9625V11.45H18.1594V5.81562Z" fill="white"/>
</svg>
