<svg width="29" height="41" viewBox="0 0 29 41" fill="none" xmlns="http://www.w3.org/2000/svg">
<path d="M0.130188 7.67148C0.130188 3.43535 3.59347 0 7.86404 0H21.1359C25.4065 0 28.8698 3.43535 28.8698 7.67148C28.8698 10.3541 27.4812 12.7164 25.3742 14.0857C27.4812 15.4551 28.8698 17.8174 28.8698 20.5C28.8698 24.7361 25.4065 28.1715 21.1359 28.1715H20.9664C18.9643 28.1715 17.1398 27.4187 15.7674 26.1775V33.2484C15.7674 37.5406 12.2153 41 7.90441 41C3.64191 41 0.130188 37.5727 0.130188 33.3285C0.130188 30.6459 1.51873 28.2836 3.61769 26.9143C1.51873 25.5449 0.130188 23.1826 0.130188 20.5C0.130188 17.8174 1.51873 15.4551 3.61769 14.0857C1.51873 12.7164 0.130188 10.3541 0.130188 7.67148ZM13.2325 15.343H7.86404C4.99008 15.343 2.66508 17.6492 2.66508 20.5C2.66508 23.3348 4.97394 25.641 7.83175 25.657C7.83982 25.657 7.85597 25.657 7.86404 25.657H13.2325V15.343ZM15.7674 20.5C15.7674 23.3508 18.0924 25.657 20.9664 25.657H21.1359C24.0018 25.657 26.3349 23.3508 26.3349 20.5C26.3349 17.6492 24.0018 15.343 21.1359 15.343H20.9664C18.0924 15.343 15.7674 17.6492 15.7674 20.5ZM7.86404 28.1715C7.85597 28.1715 7.83982 28.1715 7.83175 28.1715C4.97394 28.1875 2.66508 30.4938 2.66508 33.3285C2.66508 36.1713 5.02238 38.4855 7.90441 38.4855C10.8349 38.4855 13.2325 36.1313 13.2325 33.2484V28.1715H7.86404ZM7.86404 2.51445C4.99008 2.51445 2.66508 4.8207 2.66508 7.67148C2.66508 10.5223 4.99008 12.8285 7.86404 12.8285H13.2325V2.51445H7.86404ZM15.7674 12.8285H21.1359C24.0018 12.8285 26.3349 10.5223 26.3349 7.67148C26.3349 4.8207 24.0018 2.51445 21.1359 2.51445H15.7674V12.8285Z" fill="white"/>
</svg>
