<svg width="29" height="29" viewBox="0 0 29 29" fill="none" xmlns="http://www.w3.org/2000/svg">
<path d="M14.5 12.8889C10.4722 12.8889 7.04861 12.2579 4.22917 10.9958C1.40972 9.7338 0 8.21667 0 6.44444C0 4.67222 1.40972 3.15509 4.22917 1.89306C7.04861 0.631019 10.4722 0 14.5 0C18.5278 0 21.9514 0.631019 24.7708 1.89306C27.5903 3.15509 29 4.67222 29 6.44444C29 8.21667 27.5903 9.7338 24.7708 10.9958C21.9514 12.2579 18.5278 12.8889 14.5 12.8889ZM14.5 20.9444C10.4722 20.9444 7.04861 20.3134 4.22917 19.0514C1.40972 17.7894 0 16.2722 0 14.5V10.4722C0 11.6537 0.550463 12.6542 1.65139 13.4737C2.75232 14.2922 4.06806 14.9565 5.59861 15.4667C7.12917 15.9769 8.72041 16.3458 10.3723 16.5735C12.0232 16.8023 13.3991 16.9167 14.5 16.9167C15.6009 16.9167 16.9768 16.8023 18.6277 16.5735C20.2796 16.3458 21.8708 15.9769 23.4014 15.4667C24.9319 14.9565 26.2477 14.2922 27.3486 13.4737C28.4495 12.6542 29 11.6537 29 10.4722V14.5C29 16.2722 27.5903 17.7894 24.7708 19.0514C21.9514 20.3134 18.5278 20.9444 14.5 20.9444ZM14.5 29C10.4722 29 7.04861 28.369 4.22917 27.1069C1.40972 25.8449 0 24.3278 0 22.5556V18.5278C0 19.7093 0.550463 20.7098 1.65139 21.5293C2.75232 22.3477 4.06806 23.012 5.59861 23.5222C7.12917 24.0324 8.72041 24.4019 10.3723 24.6307C12.0232 24.8584 13.3991 24.9722 14.5 24.9722C15.6009 24.9722 16.9768 24.8584 18.6277 24.6307C20.2796 24.4019 21.8708 24.0324 23.4014 23.5222C24.9319 23.012 26.2477 22.3477 27.3486 21.5293C28.4495 20.7098 29 19.7093 29 18.5278V22.5556C29 24.3278 27.5903 25.8449 24.7708 27.1069C21.9514 28.369 18.5278 29 14.5 29Z" fill="#C2B4B4"/>
</svg>
