<svg width="62" height="41" viewBox="0 0 62 41" fill="none" xmlns="http://www.w3.org/2000/svg">
<path d="M34.94 41H57.695C58.4211 41 59.1161 40.745 59.745 40.385C60.3739 40.025 61.0221 39.5734 61.385 38.95C61.7478 38.3266 62.0004 37.6195 62 36.8998C61.9996 36.18 61.7485 35.4732 61.385 34.8502L46.01 8.405C45.6471 7.7818 45.2037 7.32982 44.575 6.97C43.9463 6.61018 43.0461 6.355 42.32 6.355C41.5939 6.355 40.8987 6.61018 40.27 6.97C39.6413 7.32982 39.1978 7.7818 38.835 8.405L34.94 15.17L27.15 2.04952C26.7867 1.42636 26.3439 0.769757 25.715 0.41C25.0861 0.0502428 24.3911 0 23.665 0C22.9389 0 22.2439 0.0502428 21.615 0.41C20.9861 0.769757 20.3382 1.42636 19.975 2.04952L0.910001 34.8502C0.546532 35.4732 0.500318 36.18 0.500002 36.8998C0.499686 37.6195 0.547079 38.3266 0.910001 38.95C1.27292 39.5732 1.92115 40.025 2.55 40.385C3.17884 40.745 3.87385 41 4.6 41H18.95C24.6361 41 28.7746 38.4494 31.66 33.62L38.63 21.525L42.32 15.17L53.595 34.44H38.63L34.94 41ZM18.745 34.44H8.7L23.665 8.61L31.25 21.525L26.2257 30.2836C24.3095 33.4171 22.125 34.44 18.745 34.44Z" fill="white"/>
</svg>
