<svg width="47" height="41" viewBox="0 0 47 41" fill="none" xmlns="http://www.w3.org/2000/svg">
<path d="M23.5826 16.0957C21.0963 16.0957 19.0808 18.0496 19.0808 20.46C19.0808 22.8703 21.0963 24.8242 23.5826 24.8242C26.0689 24.8242 28.0844 22.8703 28.0844 20.46C28.0844 18.0496 26.0689 16.0957 23.5826 16.0957Z" fill="white"/>
<path d="M46.9967 20.4995C46.9967 17.0733 43.7239 14.0682 38.5129 12.0906C38.5825 11.6452 38.6455 11.2047 38.6903 10.7722C39.2042 5.84903 37.9807 2.29573 35.2467 0.765078C32.1877 -0.947258 27.8671 0.295592 23.4983 3.68489C19.1296 0.295592 14.8089 -0.947258 11.75 0.765078C9.01602 2.29573 7.79244 5.84903 8.30641 10.7722C8.35117 11.2047 8.41252 11.6469 8.48381 12.0938C8.04942 12.2546 7.62332 12.425 7.21381 12.6035C2.56156 14.631 0 17.4382 0 20.4995C0 23.9258 3.27282 26.9309 8.48381 28.9085C8.41252 29.3539 8.35117 29.7944 8.30641 30.2269C7.79244 35.1501 9.01602 38.7034 11.75 40.234C12.69 40.7508 13.7551 41.015 14.8355 40.9993C17.4252 40.9993 20.4493 39.6777 23.4983 37.3142C26.5457 39.6777 29.5715 40.9993 32.1645 40.9993C33.2449 41.0147 34.3099 40.7505 35.25 40.234C37.984 38.7034 39.2076 35.1501 38.6936 30.2269C38.6488 29.7944 38.5858 29.3539 38.5162 28.9085C43.7272 26.9341 47 23.9242 47 20.4995M32.1446 2.17032C32.8393 2.15407 33.5259 2.31721 34.1342 2.64302C36.0326 3.70579 36.8848 6.58863 36.4703 10.5519C36.4421 10.822 36.4089 11.0954 36.3691 11.3703C34.2024 10.7375 31.9836 10.2862 29.7373 10.0213C28.3755 8.26599 26.8612 6.62698 25.211 5.12229C27.8024 3.18003 30.2347 2.17032 32.143 2.17032M31.2526 24.8407C30.4141 26.2521 29.501 27.6205 28.517 28.9406C26.8491 29.1068 25.1734 29.1894 23.4967 29.1883C21.8205 29.1894 20.1454 29.1067 18.478 28.9406C17.4966 27.6205 16.5863 26.252 15.7507 24.8407C14.9122 23.4332 14.1501 21.9842 13.4677 20.4995C14.1501 19.0149 14.9122 17.5659 15.7507 16.1584C16.585 14.7527 17.4925 13.3891 18.4697 12.0729C20.1402 11.9027 21.8187 11.8179 23.4983 11.8189C25.1745 11.8179 26.8496 11.9006 28.517 12.0665C29.4976 13.3847 30.4084 14.7505 31.246 16.1584C32.0839 17.5662 32.8459 19.0152 33.529 20.4995C32.8459 21.9839 32.0839 23.4329 31.246 24.8407M34.6697 23.2329C35.1959 24.6243 35.6279 26.0476 35.9629 27.4936C34.509 27.9331 33.0269 28.2796 31.5262 28.5306C32.0965 27.6967 32.6492 26.829 33.1842 25.9276C33.7131 25.0368 34.2088 24.1381 34.6763 23.2393M20.3499 31.2607C21.3811 31.3218 22.4339 31.3572 23.5 31.3572C24.5661 31.3572 25.6255 31.3218 26.6584 31.2607C25.6791 32.3983 24.624 33.4725 23.5 34.4764C22.3784 33.4726 21.3261 32.3984 20.3499 31.2607ZM15.4721 28.5274C13.9709 28.2775 12.4883 27.9321 11.0338 27.4936C11.3674 26.0499 11.7978 24.6288 12.322 23.2393C12.7829 24.1381 13.277 25.0368 13.8142 25.9276C14.3513 26.8183 14.9068 27.6962 15.4721 28.5306M12.322 17.7582C11.7996 16.3739 11.3704 14.9582 11.0371 13.52C12.488 13.081 13.9667 12.7335 15.4638 12.4797C14.8968 13.311 14.3414 14.1727 13.8059 15.0715C13.2704 15.9703 12.7813 16.8578 12.3137 17.7582M26.6485 9.73675C25.6172 9.67566 24.5644 9.64028 23.4901 9.64028C22.4245 9.64028 21.3745 9.67244 20.3399 9.73675C21.3162 8.59907 22.3685 7.52487 23.4901 6.5211C24.6145 7.52461 25.6696 8.59881 26.6485 9.73675ZM33.1809 15.0715C32.6437 14.169 32.0883 13.3008 31.5146 12.4668C33.0193 12.7179 34.5053 13.0649 35.9629 13.5055C35.6285 14.949 35.1982 16.3701 34.6747 17.7598C34.2138 16.861 33.718 15.9623 33.1825 15.0731M10.5331 10.5535C10.1136 6.59184 10.9708 3.7074 12.8675 2.64463C13.4759 2.31932 14.1624 2.15622 14.857 2.17193C16.7653 2.17193 19.1976 3.18164 21.789 5.1239C20.1377 6.62966 18.6223 8.26973 17.2594 10.0262C15.0137 10.2923 12.7952 10.7419 10.6276 11.3703C10.5894 11.0954 10.5546 10.8236 10.5281 10.5535M8.13232 14.5827C8.38765 14.4756 8.64795 14.3684 8.91322 14.2612C9.43474 16.3948 10.1419 18.4818 11.0271 20.4995C10.1402 22.5213 9.43249 24.6126 8.91156 26.7508C4.68707 25.0706 2.23825 22.7425 2.23825 20.4995C2.23825 18.374 4.39361 16.2179 8.13232 14.5827ZM12.8675 38.3545C10.9708 37.2917 10.1136 34.4073 10.5331 30.4456C10.5596 30.1755 10.5944 29.9037 10.6325 29.6272C12.7993 30.2598 15.0181 30.7111 17.2644 30.9762C18.6266 32.7322 20.1408 34.3722 21.7906 35.8784C18.1779 38.5844 14.8769 39.4767 12.8724 38.3545M36.4686 30.4456C36.8831 34.4089 36.0309 37.2917 34.1325 38.3545C32.1297 39.4799 28.827 38.5844 25.216 35.8784C26.8653 34.3722 28.379 32.7321 29.7406 30.9762C31.9869 30.7113 34.2057 30.26 36.3724 29.6272C36.4122 29.9037 36.4454 30.1755 36.4736 30.4456M38.0951 26.7476C37.5727 24.6106 36.8644 22.5205 35.9778 20.4995C36.864 18.4776 37.5717 16.3863 38.0934 14.2483C42.3096 15.9285 44.7651 18.2566 44.7651 20.4995C44.7651 22.7425 42.3162 25.0706 38.0918 26.7508" fill="white"/>
</svg>
